<?xml version="1.0" encoding="UTF-8" standalone="no"?>
<!DOCTYPE svg PUBLIC "-//W3C//DTD SVG 1.1//EN" "http://www.w3.org/Graphics/SVG/1.1/DTD/svg11.dtd">
<svg xmlns="http://www.w3.org/2000/svg" version="1.1" viewBox="0.00 0.00 506.00 493.00">
<path fill="#0c1411" d="
  M 250.14 93.75
  L 250.42 70.87
  Q 250.43 70.00 251.30 70.06
  L 260.70 70.69
  A 0.99 0.98 -87.9 0 1 261.62 71.69
  L 261.34 116.74
  A 0.88 0.88 0.0 0 1 259.94 117.44
  Q 244.78 106.31 231.19 93.31
  A 0.54 0.53 -70.9 0 0 230.29 93.75
  L 232.25 115.54
  A 0.65 0.64 -6.1 0 1 231.69 116.23
  L 221.68 117.41
  Q 221.24 117.46 221.20 117.02
  L 216.53 72.18
  A 0.52 0.50 -7.8 0 1 216.96 71.63
  L 222.68 70.77
  Q 223.20 70.69 223.60 71.04
  L 249.49 94.04
  Q 250.13 94.61 250.14 93.75
  Z"
/>
<path fill="#0c1411" d="
  M 319.62 85.13
  C 327.61 87.91 335.35 95.71 336.19 104.66
  Q 336.26 105.46 335.46 105.47
  L 325.84 105.59
  Q 325.19 105.60 324.94 105.00
  C 321.17 95.83 311.36 91.49 303.60 98.84
  C 296.89 105.20 300.18 116.14 308.55 119.12
  Q 314.30 121.17 319.81 117.97
  Q 320.51 117.57 320.98 118.22
  L 326.26 125.48
  A 1.10 1.10 0.0 0 1 325.96 127.06
  C 312.79 135.41 295.25 129.69 289.74 115.16
  Q 287.57 109.44 288.56 103.67
  C 290.12 94.59 296.32 87.83 305.04 84.99
  Q 312.38 82.60 319.62 85.13
  Z"
/>
<path fill="#0c1411" d="
  M 162.14 88.71
  Q 163.35 87.87 164.35 88.66
  Q 184.31 104.63 204.51 120.06
  A 0.59 0.59 0.0 0 1 204.38 121.07
  L 193.45 125.80
  A 1.00 0.99 -36.8 0 1 192.44 125.66
  L 185.22 119.77
  A 0.46 0.46 0.0 0 0 184.73 119.72
  L 169.72 127.83
  Q 169.19 128.11 169.30 128.71
  L 170.65 136.12
  A 1.05 1.05 0.0 0 1 170.14 137.23
  L 160.18 142.90
  A 0.92 0.92 0.0 0 1 158.81 142.12
  Q 158.29 117.56 155.52 93.14
  Q 155.45 92.60 155.91 92.29
  C 157.95 90.95 160.13 90.10 162.14 88.71
  Z
  M 168.67 116.97
  A 0.31 0.31 0.0 0 0 169.13 117.22
  L 176.85 112.78
  A 0.31 0.31 0.0 0 0 176.87 112.26
  L 168.50 106.64
  A 0.31 0.31 0.0 0 0 168.02 106.92
  L 168.67 116.97
  Z"
/>
<path fill="#0c1411" d="
  M 352.04 150.21
  L 366.47 165.43
  A 0.32 0.32 0.0 0 1 366.45 165.89
  L 358.35 173.10
  A 0.32 0.32 0.0 0 1 357.90 173.07
  L 336.59 148.61
  A 0.32 0.32 0.0 0 1 336.61 148.17
  L 367.49 118.86
  A 0.32 0.32 0.0 0 0 367.58 118.70
  L 367.80 117.75
  A 0.32 0.32 0.0 0 1 368.35 117.61
  L 392.51 143.47
  A 0.32 0.32 0.0 0 1 392.47 143.95
  L 384.52 150.16
  A 0.32 0.32 0.0 0 1 384.09 150.13
  L 369.26 134.44
  A 0.32 0.32 0.0 0 0 368.82 134.42
  L 364.59 138.09
  A 0.32 0.32 0.0 0 0 364.56 138.54
  L 376.62 151.76
  A 0.32 0.32 0.0 0 1 376.60 152.22
  L 369.49 158.54
  A 0.32 0.32 0.0 0 1 369.05 158.52
  L 357.13 146.11
  A 0.32 0.32 0.0 0 0 356.70 146.08
  L 352.07 149.74
  A 0.32 0.32 0.0 0 0 352.04 150.21
  Z"
/>
<path fill="#0c1411" d="
  M 95.15 149.75
  A 1.14 1.14 0.0 0 1 95.00 148.14
  L 105.55 135.53
  A 24.68 22.97 -50.1 0 1 139.00 131.33
  L 139.05 131.37
  A 24.68 22.97 -50.1 0 1 140.84 165.04
  L 130.29 177.65
  A 1.14 1.14 0.0 0 1 128.69 177.79
  L 95.15 149.75
  Z
  M 110.91 147.29
  L 127.80 161.60
  A 1.09 1.09 0.0 0 0 129.34 161.48
  L 132.08 158.24
  A 12.83 11.56 -49.7 0 0 131.56 140.98
  L 130.65 140.21
  A 12.83 11.56 -49.7 0 0 113.53 142.52
  L 110.79 145.75
  A 1.09 1.09 0.0 0 0 110.91 147.29
  Z"
/>
<path fill="#0c1411" d="
  M 285.62 143.13
  C 300.84 148.92 313.03 156.18 324.47 167.70
  C 343.98 187.35 358.24 214.92 359.96 242.97
  Q 363.25 296.75 325.56 336.18
  A 0.45 0.44 48.5 0 1 324.88 336.13
  L 316.11 324.35
  A 1.00 1.00 0.0 0 1 316.18 323.09
  C 350.64 286.04 354.35 231.41 324.24 190.80
  C 301.98 160.80 264.63 145.54 227.74 152.09
  C 204.05 156.29 183.05 170.07 168.43 189.16
  Q 144.90 219.90 146.81 257.80
  C 147.91 279.76 156.84 300.75 170.75 317.72
  A 0.90 0.88 -43.0 0 1 170.70 318.91
  L 160.64 329.26
  A 0.66 0.66 0.0 0 1 159.66 329.22
  Q 129.87 293.31 131.27 247.19
  C 132.15 218.17 145.05 190.48 165.09 169.60
  Q 188.50 145.20 221.65 137.98
  Q 253.75 130.99 285.62 143.13
  Z"
/>
<path fill="#0c1411" d="
  M 259.96 280.99
  C 259.75 287.91 259.10 296.47 261.50 303.44
  Q 266.70 318.54 272.46 333.44
  C 274.34 338.33 275.13 342.94 275.77 347.95
  Q 275.82 348.40 276.27 348.30
  Q 283.51 346.63 289.90 342.77
  Q 290.41 342.47 290.75 342.95
  Q 295.10 349.02 300.69 353.99
  Q 301.20 354.44 300.60 354.75
  C 262.28 374.66 215.41 372.95 179.93 347.80
  A 0.94 0.94 0.0 0 1 179.77 346.40
  L 188.78 336.36
  A 0.91 0.91 0.0 0 1 189.96 336.22
  Q 214.08 352.73 243.52 352.94
  A 0.68 0.68 0.0 0 0 244.09 351.87
  Q 241.00 347.49 236.50 344.64
  A 0.97 0.96 14.2 0 0 235.02 345.52
  L 235.37 350.73
  A 0.58 0.57 32.7 0 1 234.26 350.97
  C 232.93 347.50 229.98 340.83 230.81 337.29
  A 1.41 1.39 -12.8 0 1 231.32 336.49
  C 236.66 332.32 234.32 327.15 234.12 321.56
  A 0.52 0.51 82.4 0 0 233.50 321.08
  Q 214.29 325.34 204.13 309.02
  A 0.65 0.64 51.0 0 0 203.12 308.91
  Q 192.83 319.64 183.48 331.21
  C 177.53 338.56 172.20 342.87 164.52 347.28
  A 1.20 1.19 -14.8 0 1 162.73 346.24
  Q 162.77 340.92 166.56 337.47
  A 0.55 0.55 0.0 0 0 166.57 336.66
  L 164.98 335.16
  A 0.56 0.55 60.9 0 1 165.25 334.21
  L 169.77 333.31
  A 0.96 0.95 6.3 0 0 170.43 332.79
  C 171.38 330.74 172.51 326.71 174.47 325.62
  A 1.16 1.14 42.3 0 1 175.52 325.58
  Q 178.72 327.06 180.67 323.51
  Q 184.91 315.82 188.80 308.01
  C 192.44 300.69 200.46 296.62 206.02 290.79
  Q 214.89 281.48 218.91 268.82
  C 220.10 265.09 219.05 260.81 219.98 257.01
  C 221.98 248.86 232.84 246.74 233.18 238.21
  A 0.25 0.24 85.4 0 0 232.89 237.96
  Q 228.78 238.83 226.43 237.10
  C 224.05 235.33 219.12 229.16 224.03 227.46
  A 0.55 0.55 0.0 0 0 224.36 226.74
  C 222.50 221.93 218.76 217.16 217.78 212.33
  C 216.69 206.97 221.27 198.62 217.15 193.45
  Q 216.76 192.96 216.43 193.49
  Q 213.20 198.80 208.43 196.67
  C 203.52 194.47 203.00 186.24 208.88 185.50
  Q 209.36 185.44 209.37 184.95
  Q 209.54 173.56 221.00 173.36
  Q 231.23 173.18 232.65 183.36
  Q 232.71 183.80 233.08 184.06
  L 235.31 185.62
  Q 235.63 185.85 235.62 186.24
  Q 235.59 187.79 234.25 188.50
  A 1.06 1.05 73.4 0 0 233.69 189.54
  L 234.25 194.79
  A 0.85 0.84 74.9 0 1 233.77 195.64
  Q 231.48 196.69 228.97 196.46
  Q 228.03 196.37 227.96 197.31
  Q 227.60 202.36 231.59 205.31
  Q 232.06 205.66 232.63 205.50
  Q 240.79 203.26 248.12 199.02
  A 1.04 1.03 64.0 0 0 248.56 197.73
  Q 247.38 194.84 250.25 193.85
  A 0.73 0.73 0.0 0 0 250.66 192.82
  L 249.96 191.52
  A 0.63 0.63 0.0 0 0 249.01 191.33
  Q 248.12 192.05 247.17 192.59
  Q 245.06 193.80 244.22 191.79
  Q 243.30 189.59 242.64 187.34
  A 0.88 0.88 0.0 0 0 241.99 186.74
  L 240.16 186.36
  Q 239.61 186.25 239.64 185.69
  L 240.24 174.39
  Q 240.27 173.83 239.71 173.84
  Q 236.65 173.92 236.65 170.87
  A 1.07 1.04 68.8 0 1 236.98 170.10
  Q 238.16 169.02 240.41 167.92
  C 245.69 165.34 256.79 160.66 260.92 167.35
  C 265.91 175.43 257.87 181.36 262.05 189.28
  A 0.94 0.94 0.0 0 1 261.71 190.52
  C 257.93 192.87 255.07 193.79 252.81 197.94
  A 1.60 1.54 83.7 0 1 252.51 198.33
  Q 251.52 199.22 250.20 199.10
  A 0.87 0.87 0.0 0 0 249.32 199.62
  Q 246.40 206.42 245.96 213.84
  Q 245.91 214.74 246.79 214.60
  L 251.38 213.86
  Q 251.95 213.76 252.23 213.25
  Q 257.84 202.69 264.75 192.91
  Q 264.96 192.62 265.24 192.83
  L 275.16 200.42
  Q 275.70 200.84 276.30 200.50
  L 280.17 198.33
  A 0.85 0.84 -21.2 0 0 280.58 197.42
  C 280.15 195.39 279.22 191.40 282.98 191.84
  A 0.71 0.71 0.0 0 0 283.77 191.20
  L 283.90 189.73
  A 0.66 0.65 79.9 0 1 284.27 189.19
  C 288.19 187.29 290.40 190.92 290.11 194.26
  C 289.67 199.10 289.72 202.63 291.99 206.70
  Q 292.70 207.96 293.05 209.75
  Q 294.80 218.79 295.46 225.00
  C 296.71 236.74 287.40 236.66 282.05 229.44
  Q 278.62 224.80 274.70 220.68
  A 0.40 0.40 0.0 0 0 274.06 220.76
  C 265.66 235.34 274.39 250.16 280.17 263.90
  A 0.66 0.65 78.2 0 1 279.58 264.81
  L 277.16 264.83
  A 0.53 0.52 76.4 0 0 276.70 265.59
  Q 282.43 277.29 286.77 289.54
  C 288.72 295.04 293.84 299.55 296.84 304.69
  Q 305.51 319.53 314.55 334.14
  A 0.73 0.70 -51.6 0 1 314.61 334.76
  L 313.92 336.63
  A 0.41 0.40 40.5 0 0 313.95 336.96
  Q 315.50 339.66 317.32 342.11
  C 319.49 345.01 323.85 353.73 319.65 356.14
  A 1.37 1.35 -54.9 0 1 318.78 356.30
  Q 312.77 355.35 309.62 350.45
  C 308.68 348.98 308.14 346.82 307.31 344.91
  A 0.66 0.65 -25.9 0 0 306.40 344.60
  L 302.09 346.94
  Q 301.50 347.26 301.04 346.76
  Q 299.87 345.50 298.63 343.34
  C 286.50 322.22 274.98 300.84 261.26 280.61
  Q 260.02 278.79 259.96 280.99
  Z
  M 283.97 209.14
  L 283.86 204.53
  A 0.84 0.84 0.0 0 0 282.47 203.92
  L 280.22 205.90
  A 0.65 0.65 0.0 0 0 280.14 206.81
  L 283.99 211.55
  A 1.09 1.09 0.0 0 0 284.79 211.95
  Q 290.53 212.21 291.25 206.53
  A 0.51 0.51 0.0 0 0 290.27 206.26
  Q 288.70 209.88 284.74 209.89
  A 0.76 0.76 0.0 0 1 283.97 209.14
  Z
  M 245.64 310.33
  C 244.43 316.28 240.40 333.55 242.63 336.81
  Q 245.39 340.83 247.03 345.43
  C 248.01 348.16 251.03 349.31 253.61 347.83
  Q 257.18 345.78 260.10 342.97
  A 0.41 0.41 0.0 0 0 259.80 342.27
  L 256.91 342.40
  Q 256.34 342.42 256.17 341.87
  L 246.64 310.29
  Q 246.05 308.33 245.64 310.33
  Z"
/>
<circle fill="#0c1411" cx="98.58" cy="252.38" r="11.72"/>
<ellipse fill="#0c1411" cx="0.00" cy="0.00" transform="translate(392.54,252.45) rotate(90.4)" rx="11.80" ry="11.63"/>
<path fill="#0c1411" d="
  M 132.61 369.20
  A 0.23 0.23 0.0 0 0 132.94 369.51
  L 152.93 357.00
  A 0.94 0.94 0.0 0 1 154.04 357.07
  L 161.92 363.60
  A 0.68 0.68 0.0 0 1 161.83 364.71
  L 121.20 387.93
  Q 120.65 388.25 120.19 387.81
  L 116.28 384.05
  Q 115.94 383.73 116.11 383.30
  L 124.62 361.39
  Q 124.81 360.89 124.30 361.06
  L 103.03 368.02
  A 1.04 1.04 0.0 0 1 101.86 367.65
  L 98.91 363.75
  Q 98.47 363.17 98.89 362.57
  L 125.99 324.39
  Q 126.62 323.50 127.14 324.46
  L 132.09 333.64
  A 0.81 0.80 -41.7 0 1 132.04 334.49
  Q 125.41 343.67 117.66 351.89
  A 0.28 0.28 0.0 0 0 117.97 352.34
  Q 126.58 348.73 135.14 345.81
  Q 138.67 344.61 141.35 346.69
  A 1.81 1.81 0.0 0 1 141.93 348.73
  Q 138.04 359.31 132.61 369.20
  Z"
/>
<path fill="#0c1411" d="
  M 361.49 352.58
  L 369.76 341.20
  A 1.30 1.30 0.0 0 1 371.47 340.85
  L 378.38 344.97
  A 1.10 1.09 33.2 0 1 378.71 346.54
  L 369.50 359.42
  A 0.64 0.64 0.0 0 0 369.62 360.30
  L 374.25 364.03
  A 0.95 0.94 37.6 0 0 375.59 363.86
  Q 381.59 355.94 386.17 347.12
  A 0.72 0.72 0.0 0 1 387.16 346.82
  L 395.52 351.38
  A 0.85 0.84 29.0 0 1 395.85 352.52
  Q 387.56 367.60 376.06 380.39
  A 0.82 0.81 40.8 0 1 374.94 380.47
  L 340.58 352.38
  Q 340.11 352.00 340.51 351.54
  Q 350.23 340.59 357.81 328.05
  Q 358.14 327.51 358.69 327.84
  L 367.36 333.09
  A 0.61 0.60 -56.4 0 1 367.53 333.97
  L 356.89 348.64
  Q 356.59 349.05 356.95 349.39
  L 360.44 352.68
  A 0.71 0.71 0.0 0 0 361.49 352.58
  Z"
/>
<path fill="#0c1411" d="
  M 310.54 398.82
  L 320.27 419.30
  A 1.10 1.10 0.0 0 1 319.70 420.78
  L 309.46 424.93
  Q 308.92 425.15 308.71 424.61
  Q 300.73 403.67 290.95 383.51
  Q 290.69 382.97 291.24 382.73
  L 299.22 379.27
  A 0.94 0.94 0.0 0 1 300.04 379.31
  L 320.60 390.36
  Q 321.25 390.71 321.26 389.97
  L 321.73 367.91
  Q 321.74 367.40 322.14 367.09
  L 328.99 361.65
  A 0.78 0.77 -37.5 0 1 330.08 361.79
  L 356.42 396.88
  A 1.20 1.19 -38.2 0 1 356.22 398.53
  L 348.87 404.46
  Q 347.63 405.47 346.70 404.17
  L 333.49 385.75
  A 0.56 0.56 0.0 0 0 332.48 386.03
  L 331.05 406.02
  A 1.13 1.13 0.0 0 1 329.43 406.96
  L 311.12 398.24
  Q 310.01 397.71 310.54 398.82
  Z"
/>
<rect fill="#0c1411" x="-5.69" y="-22.79" transform="translate(162.05,390.51) rotate(29.4)" width="11.38" height="45.58" rx="1.30"/>
<path fill="#0c1411" d="
  M 192.12 391.48
  L 181.26 387.55
  A 0.76 0.76 0.0 0 1 180.82 386.55
  L 184.65 377.36
  A 0.64 0.64 0.0 0 1 185.50 377.02
  Q 201.29 383.95 218.10 387.82
  A 0.72 0.71 14.9 0 1 218.63 388.73
  L 215.84 397.89
  A 0.64 0.63 14.9 0 1 215.08 398.32
  L 204.06 395.61
  A 0.82 0.82 0.0 0 0 203.09 396.13
  L 191.65 427.70
  A 0.64 0.64 0.0 0 1 190.82 428.08
  L 181.26 424.42
  Q 180.64 424.18 180.86 423.56
  L 192.30 391.87
  A 0.30 0.30 0.0 0 0 192.12 391.48
  Z"
/>
<path fill="#0c1411" d="
  M 254.27 418.45
  L 238.07 418.44
  A 0.94 0.94 0.0 0 0 237.13 419.38
  L 237.17 434.32
  A 0.94 0.94 0.0 0 1 236.22 435.26
  L 226.21 435.16
  A 0.94 0.94 0.0 0 1 225.28 434.20
  L 226.33 390.20
  A 0.94 0.94 0.0 0 1 227.34 389.29
  L 236.59 390.03
  A 0.94 0.94 0.0 0 1 237.46 390.97
  L 237.43 406.21
  A 0.94 0.94 0.0 0 0 238.40 407.15
  L 253.18 406.75
  A 0.94 0.94 0.0 0 0 254.10 405.81
  L 254.02 390.80
  A 0.94 0.94 0.0 0 1 254.88 389.86
  L 263.59 389.07
  A 0.94 0.94 0.0 0 1 264.62 389.95
  L 267.18 434.01
  A 0.94 0.94 0.0 0 1 266.26 435.01
  L 256.16 435.17
  A 0.94 0.94 0.0 0 1 255.20 434.23
  L 255.21 419.39
  A 0.94 0.94 0.0 0 0 254.27 418.45
  Z"
/>
</svg>
