<?xml version="1.0" encoding="utf-8"?>
<!DOCTYPE svg PUBLIC "-//W3C//DTD SVG 1.0//EN" "http://www.w3.org/TR/2001/REC-SVG-20010904/DTD/svg10.dtd">
<svg version="1.0" xmlns="http://www.w3.org/2000/svg" width="645px" height="841px" viewBox="0 0 645 841" preserveAspectRatio="xMidYMid meet">
 <g fill="#000000">
  <path d="M430 819.4 c0 -3.7 5.4 -11.4 10.1 -14.4 5.5 -3.6 6.8 -5.4 9.7 -13.3 2.6 -6.7 2.8 -9.7 0.8 -9.7 -0.8 0 -2.6 -0.4 -3.9 -0.9 l-2.5 -1 3.4 -9.8 c1.8 -5.4 8.2 -28.7 14.3 -51.8 6 -23.1 14.4 -55.3 18.7 -71.5 12.9 -49.4 12.3 -46.4 13.5 -69.5 0.6 -11.5 1.3 -21.2 1.4 -21.3 0.2 -0.2 8.4 -2.3 18.2 -4.7 21.1 -5.2 31.9 -8.5 42.6 -13.2 4.3 -1.9 8.1 -3.2 8.4 -3 1.2 1.2 2 26 1.2 35.4 -0.5 5.7 -2.5 17.6 -4.3 26.5 -24.8 116.8 -27.8 128.3 -42.6 160.1 l-6.9 14.8 2.4 9.4 c1.4 5.2 2.2 10.1 1.9 10.9 -0.3 0.8 -2.7 2.4 -5.2 3.7 -10.3 4.8 -74 24.9 -79 24.9 -1.4 0 -2.2 -0.6 -2.2 -1.6z"/>
  <path d="M356.5 792.3 c-2.2 -0.2 -15.9 -1.2 -30.5 -2.4 -25.9 -2 -38.5 -3.4 -42.3 -4.8 -1.7 -0.7 -1.5 -1.1 2.1 -3.9 4.5 -3.6 8.8 -4.7 23.4 -5.7 l9.7 -0.7 3.7 -11.2 c2 -6.1 6.4 -18.3 9.6 -27.1 18.1 -48.6 27.2 -73.1 41.7 -111.7 9.6 -25.4 10.1 -27.1 11.1 -37.8 0.5 -6.2 1.4 -11.8 2 -12.5 0.6 -0.7 3.4 -1.6 6.2 -2 2.8 -0.4 5.8 -1.5 6.9 -2.6 2.3 -2.3 3 -2.4 2.2 -0.3 -0.5 1.3 0.2 1.4 5.3 0.9 11.3 -1.2 28.9 -3.5 34.4 -4.5 3 -0.6 8.8 -1.3 12.8 -1.7 l7.2 -0.6 0 3.9 c0 5.9 -2.7 21 -5.3 29.9 -1.3 4.4 -5.6 16.6 -9.5 27 -3.9 10.5 -12.1 32.5 -18.2 49 -15.2 40.9 -28.7 73.9 -31.3 76.4 -1.2 1.1 -6.2 3.5 -11.2 5.4 l-9 3.4 -2.1 6.1 c-1.1 3.4 -2.7 6.8 -3.4 7.7 -1.2 1.4 -1.1 1.8 0.1 2.6 0.8 0.5 2.5 0.9 3.9 0.9 4.3 0.1 5.4 1.5 2.3 2.9 l-2.7 1.3 2.3 1.7 2.3 1.8 -2.6 2.6 c-1.4 1.4 -2.6 3 -2.6 3.5 0 2.6 -6.7 3.5 -18.5 2.5z"/>
  <path d="M74.7 785.9 c-10.3 -1.6 -24.5 -10.7 -28.4 -18.3 -3.7 -7.1 -0.9 -22.8 6.3 -34.9 1.9 -3.2 3.4 -6.5 3.4 -7.3 0 -0.8 -1.4 -2.3 -3.1 -3.2 -9.2 -5 -9.5 -6.6 -4.9 -21.2 3.3 -10.6 7.9 -19.2 11.3 -21.5 1.6 -1 6.9 -1.8 17.4 -2.4 11.3 -0.7 16.1 -1.4 19.4 -2.8 7.9 -3.6 21.1 -14.5 42.4 -35.2 11.6 -11.2 25.1 -23.7 30.2 -27.8 5.1 -4 10.9 -9.5 12.9 -12.1 l3.6 -4.7 -4.4 -1 -4.3 -1 5.5 -0.2 c3 -0.2 17.7 -1 32.5 -1.8 14.9 -0.8 30.3 -1.5 34.3 -1.5 l7.2 0 0 4.9 c0 6.2 -3.4 17.3 -6.3 20.6 -1.2 1.4 -7.5 5.2 -14 8.5 -6.5 3.3 -14.8 7.7 -18.5 9.9 -7.2 4.2 -34.7 23 -42.3 29 -36.5 28.5 -45.9 36 -54.9 44.1 -13.1 11.9 -24.7 25.7 -34.5 41 -10.3 16.1 -11 21.5 -3.4 26.9 2.2 1.7 4.6 3.2 5.2 3.4 1.6 0.5 -3.6 8.3 -6 8.9 -1 0.2 -4 0.1 -6.6 -0.3z"/>
  <path d="M80 583.4 c0 -1.6 22.3 -27.1 40.6 -46.4 6.6 -6.9 20.5 -22 30.9 -33.5 10.5 -11.5 35.2 -38.8 55 -60.5 55.7 -61.1 65.5 -72 78.7 -87.8 16.1 -19.2 27.6 -34.9 32.3 -44 2.1 -4 4.9 -8.1 6.2 -9.2 2.5 -1.9 24.8 -7.7 51.3 -13.1 24 -5 22.7 -5 29.6 1.2 3.3 2.8 39.4 38.3 80.3 78.8 70.3 69.5 126.1 126.3 126.1 128.3 0 1.4 -17.3 12.2 -29 18.2 -25.9 13.2 -56.7 23.2 -102 33.1 -20.7 4.5 -20 4.2 -19.4 6.3 0.4 1.1 0.3 1.3 -0.3 0.5 -2 -2.8 -9.6 -2.5 -29.9 1.1 -4.5 0.9 -11.7 2 -16 2.5 -5.1 0.6 -8.2 1.5 -9 2.5 -0.6 0.9 -2 1.6 -3 1.6 -1.6 0 -1.7 -0.2 -0.4 -1 2.2 -1.4 -2.8 -1.3 -13.6 0.5 -12.6 2 -76.7 10 -100.4 12.4 -33.5 3.5 -208 10.6 -208 8.5z"/>
  <path d="M540.2 408.8 l-25.4 -25.7 -0.8 -24.8 c-0.5 -13.6 -1.2 -42 -1.6 -62.9 -0.7 -37 -0.7 -38.2 1.2 -38.8 6.4 -1.9 47.2 -10.6 50 -10.6 l3.4 0 -0.1 56.8 c-0.1 31.2 -0.5 73.6 -0.8 94.3 l-0.6 37.5 -25.3 -25.8z"/>
  <path d="M437.5 307.2 c-20.3 -18.9 -27.1 -26 -25.4 -26.6 6.2 -2.1 33.2 -7.6 37.4 -7.6 l3.3 0 -0.5 22.8 c-0.2 12.5 -0.6 23.1 -0.7 23.6 -0.1 0.4 -6.5 -5 -14.1 -12.2z"/>
  <path d="M277.8 285.4 c-2.9 -1.2 -4.3 -2.8 -6.3 -6.9 -3.6 -7.8 -5.8 -18 -5.2 -24.7 0.7 -8.2 5.9 -18.7 11.9 -24.4 7.5 -7 25.1 -14.4 34.2 -14.4 4.1 0 10.7 4.2 13.9 8.7 3.4 4.9 5.4 9.9 7.8 19.1 1.6 6.4 1.7 7.8 0.5 10.1 -0.7 1.4 -2.2 4.4 -3.2 6.5 -4.1 8.6 -18.4 20.2 -30.3 24.7 -7.5 2.8 -18.4 3.4 -23.3 1.3z"/>
  <path d="M363.6 251.8 c-5.4 -7.2 -19.8 -39.9 -18.3 -41.4 0.4 -0.4 12.9 -2.4 27.9 -4.5 84.4 -11.8 77.2 -10.2 140.2 -30.8 21.9 -7.2 40.7 -13.1 41.7 -13.1 3.7 0 4.3 3.6 4.7 27.2 l0.4 22.8 -2.8 1.1 c-3.4 1.2 -49.2 11.8 -64.9 14.9 -21.8 4.4 -94.3 20.2 -107.7 23.6 -17.1 4.3 -18 4.3 -21.2 0.2z"/>
  <path d="M281.7 210.3 c-2 -7.4 -2.9 -15.3 -2.6 -23 0.4 -8.1 0.7 -9.3 3.3 -12.7 5.8 -7.7 9.2 -8.4 101.5 -22.1 31.1 -4.6 59.3 -8.7 62.6 -9 7.8 -0.9 10.4 -2.1 22.8 -9.8 9.2 -5.8 24.4 -14.4 60.3 -34.1 6.7 -3.6 13.3 -6.6 14.8 -6.6 2 0 4.3 1.6 8.3 5.5 l5.5 5.6 -0.4 6.2 c-0.2 3.4 -1.2 7.9 -2.2 10 -2.8 5.6 -14.7 18 -22.4 23 -14.7 9.7 -60.3 35.8 -66.3 38.1 -7.5 2.7 -11.9 3.5 -41.9 7.6 -74.7 10.1 -121.7 17.4 -132.6 20.6 -10.1 2.9 -10.1 2.9 -10.7 0.7z"/>
  <path d="M297.7 148.5 c-18.5 -5.1 -30.9 -19.1 -35.9 -40.5 -1.1 -4.7 -2.2 -9.1 -2.4 -9.7 -0.2 -0.8 -2 -1.3 -4.2 -1.3 -10.3 0 -18 -5 -22.3 -14.4 -5.3 -11.7 0.9 -26.5 13.8 -33 8.9 -4.5 22 -2.4 30 4.8 l4.7 4.3 6.5 -2.8 c9.2 -3.8 17.5 -5.2 27.9 -4.7 7.6 0.3 10 0.9 15.8 3.8 9.1 4.4 19.6 14.9 24.4 24.5 3.5 7 3.5 7.1 3.5 20.5 l0 13.5 -3.7 7.8 c-6.6 13.8 -18.1 23.5 -32.3 27.2 -7.1 1.8 -19.2 1.8 -25.8 0z"/>
  <path d="M454.9 119.2 c-14.2 -9.1 -23.9 -29.2 -23.9 -49.8 0 -25 17 -47.8 40.9 -54.8 11.4 -3.3 31.5 -1.2 42.3 4.5 8.3 4.4 20.4 16.5 24 24.1 1.6 3.1 3.5 8.5 4.3 12 1.7 7.2 2 22 0.5 24.8 -0.6 1.1 -3.1 2.8 -5.7 4 -2.6 1.1 -8.3 4.2 -12.7 6.9 -10 6 -50.1 28.2 -53.9 29.9 -4.9 2.1 -10.9 1.5 -15.8 -1.6z"/>
 </g>
 <g fill="#ffffff">
  <path d="M452 783.1 c0 -0.5 -0.8 -1.2 -1.7 -1.4 -1.4 -0.4 -1.2 -0.5 0.5 -0.6 1.3 -0.1 2.2 0.5 2.2 1.4 0 0.8 -0.2 1.5 -0.5 1.5 -0.3 0 -0.5 -0.4 -0.5 -0.9z"/>
  <path d="M158.5 592.3 c-4.9 -0.7 -5.4 -2.3 -0.6 -2.3 2.3 0 4 0.4 3.6 0.9 -0.3 0.5 0.3 1.2 1.2 1.4 2.2 0.6 -0.1 0.6 -4.2 0z"/>
  <path d="M173.3 592.3 c1.5 -0.2 3.7 -0.2 5 0 1.2 0.2 0 0.4 -2.8 0.4 -2.7 0 -3.8 -0.2 -2.2 -0.4z"/>
  <path d="M235.8 589.3 c1.2 -0.2 3 -0.2 4 0 0.9 0.3 -0.1 0.5 -2.3 0.4 -2.2 0 -3 -0.2 -1.7 -0.4z"/>
  <path d="M399.3 570.9 c1.1 -0.7 1.7 -2.2 1.7 -4.9 0 -2.2 0.5 -4 1.1 -4 0.5 0 0.7 -0.4 0.4 -1 -0.3 -0.5 0.3 -1 1.4 -1 2.3 0 1.9 2.5 -0.5 3.4 -0.8 0.3 -1.4 1.6 -1.3 2.8 0.4 4.6 -0.1 5.8 -2.3 5.8 -2.1 -0.1 -2.1 -0.2 -0.5 -1.1z"/>
  <path d="M460.1 556.8 c-0.1 -1.6 -0.8 -2.8 -1.8 -3.1 -1.7 -0.4 -1.7 -0.5 0 -0.6 2 -0.1 3.1 1.9 2.4 4.6 -0.3 1.2 -0.5 0.9 -0.6 -0.9z"/>
  <path d="M559.9 429.3 l-3.4 -3.8 3.8 3.4 c3.4 3.3 4.2 4.1 3.4 4.1 -0.2 0 -1.9 -1.7 -3.8 -3.7z"/>
  <path d="M566.5 290 c0 -24.5 0.1 -34.5 0.2 -22.3 0.2 12.3 0.2 32.3 0 44.5 -0.1 12.3 -0.2 2.3 -0.2 -22.2z"/>
  <path d="M454 142.3 c0.8 -0.3 2.4 -1 3.5 -1.5 2 -0.9 2 -0.9 0.1 0.6 -1.1 0.9 -2.7 1.6 -3.5 1.5 -1.4 0 -1.4 -0.1 -0.1 -0.6z"/>
 </g>
</svg>